# xmcd
#
# Track frame offsets: 
#        212
#        17452
#        30850
#        42767
#        55002
#        78572
#        99790
#        119027
#        132470
#        145052
#        156897
#        177055
#
# Disc length: 2547 seconds
#
# Revision: 0
# Processed by: cddbd v1.5.2PL0 Copyright (c) Steve Scherf et al.
# Submitted via: ExactAudioCopy v0.95b4
#
DISCID=8c09f10c
DTITLE=mary black - by the time gets dark
DYEAR=1900
DGENRE=Blues
TTITLE0=by the time gets dark
TTITLE1=schooldays over
TTITLE2=once in a very blue moon
TTITLE3=farewell 
TTITLE4=sparks might fly
TTITLE5=katie
TTITLE6=leaving-the land
TTITLE7=three is a time
TTITLE8=jamie
TTITLE9=leaboy's lassie
TTITLE10=trying to get the balance right
TTITLE11=moon river
EXTD=
EXTT0=
EXTT1=
EXTT2=
EXTT3=
EXTT4=
EXTT5=
EXTT6=
EXTT7=
EXTT8=
EXTT9=
EXTT10=
EXTT11=
PLAYORDER=
